<svg width="16" height="19" viewBox="0 0 16 19" fill="none" xmlns="http://www.w3.org/2000/svg">
<path d="M14.4 0H16V19H14.4V0ZM9.6 1.58333V17.4167H6.4V1.58333H9.6ZM9.6 0H6.4C5.97565 0 5.56869 0.166815 5.26863 0.463748C4.96857 0.76068 4.8 1.16341 4.8 1.58333V17.4167C4.8 17.8366 4.96857 18.2393 5.26863 18.5363C5.56869 18.8332 5.97565 19 6.4 19H9.6C10.0243 19 10.4313 18.8332 10.7314 18.5363C11.0314 18.2393 11.2 17.8366 11.2 17.4167V1.58333C11.2 1.16341 11.0314 0.76068 10.7314 0.463748C10.4313 0.166815 10.0243 0 9.6 0ZM0 0H1.6V19H0V0Z" fill="#9E9E9E"/>
</svg>
