<svg width="25" height="35" viewBox="0 0 25 35" fill="none" xmlns="http://www.w3.org/2000/svg">
<path d="M4.6875 1.5625V3.125C4.6875 3.9538 5.01674 4.74866 5.60279 5.33471C6.18884 5.92076 6.9837 6.25 7.8125 6.25H17.1875C18.0163 6.25 18.8112 5.92076 19.3972 5.33471C19.9833 4.74866 20.3125 3.9538 20.3125 3.125V1.5625H21.875C22.7038 1.5625 23.4987 1.89174 24.0847 2.47779C24.6708 3.06384 25 3.8587 25 4.6875V21.875C25 24.3614 24.0123 26.746 22.2541 28.5041C20.496 30.2623 18.1114 31.25 15.625 31.25H3.125C2.2962 31.25 1.50134 30.9208 0.915291 30.3347C0.32924 29.7487 0 28.9538 0 28.125V4.6875C0 3.8587 0.32924 3.06384 0.915291 2.47779C1.50134 1.89174 2.2962 1.5625 3.125 1.5625H4.6875ZM12.5 18.75H7.8125C7.3981 18.75 7.00067 18.9146 6.70765 19.2076C6.41462 19.5007 6.25 19.8981 6.25 20.3125C6.25 20.7269 6.41462 21.1243 6.70765 21.4174C7.00067 21.7104 7.3981 21.875 7.8125 21.875H12.5C12.9144 21.875 13.3118 21.7104 13.6049 21.4174C13.8979 21.1243 14.0625 20.7269 14.0625 20.3125C14.0625 19.8981 13.8979 19.5007 13.6049 19.2076C13.3118 18.9146 12.9144 18.75 12.5 18.75ZM17.1875 12.5H7.8125C7.41425 12.5004 7.0312 12.6529 6.74161 12.9263C6.45202 13.1997 6.27776 13.5734 6.25442 13.9709C6.23108 14.3685 6.36043 14.76 6.61604 15.0654C6.87165 15.3708 7.23423 15.567 7.62969 15.6141L7.8125 15.625H17.1875C17.6019 15.625 17.9993 15.4604 18.2924 15.1674C18.5854 14.8743 18.75 14.4769 18.75 14.0625C18.75 13.6481 18.5854 13.2507 18.2924 12.9576C17.9993 12.6646 17.6019 12.5 17.1875 12.5ZM15.625 0C16.0232 0.00044173 16.4063 0.152936 16.6959 0.426326C16.9855 0.699715 17.1597 1.07336 17.1831 1.47093C17.2064 1.86849 17.0771 2.25997 16.8215 2.56536C16.5659 2.87076 16.2033 3.06703 15.8078 3.11406L15.625 3.125H9.375C8.97675 3.12456 8.5937 2.97206 8.30411 2.69867C8.01452 2.42529 7.84026 2.05164 7.81692 1.65407C7.79358 1.25651 7.92293 0.865032 8.17854 0.559637C8.43415 0.254241 8.79673 0.0579744 9.19219 0.0109375L9.375 0H15.625Z" fill="#475569"/>
</svg>
