<svg width="16" height="16" viewBox="0 0 16 16" fill="none" xmlns="http://www.w3.org/2000/svg">
<path d="M5.33333 6.22222V16H1.77778C1.32927 16.0001 0.897274 15.8308 0.568402 15.5258C0.239529 15.2208 0.0380829 14.8028 0.00444455 14.3556L0 14.2222V6.22222H5.33333ZM16 6.22222V14.2222C16.0001 14.6707 15.8308 15.1027 15.5258 15.4316C15.2208 15.7605 14.8028 15.9619 14.3556 15.9956L14.2222 16H7.11111V6.22222H16ZM14.2222 0C14.6937 0 15.1459 0.187301 15.4793 0.520699C15.8127 0.854097 16 1.30628 16 1.77778V4.44444H0V1.77778C0 1.30628 0.187301 0.854097 0.520699 0.520699C0.854097 0.187301 1.30628 0 1.77778 0H14.2222Z" fill="#74BBF2"/>
</svg>
