<svg width="19" height="15" viewBox="0 0 19 15" fill="none" xmlns="http://www.w3.org/2000/svg">
<path d="M0 13.5H19V15H0V13.5ZM17.4167 9H1.58333V6H17.4167V9ZM19 9V6C19 5.60218 18.8332 5.22064 18.5363 4.93934C18.2393 4.65804 17.8366 4.5 17.4167 4.5H1.58333C1.16341 4.5 0.76068 4.65804 0.463748 4.93934C0.166815 5.22064 0 5.60218 0 6V9C0 9.39782 0.166815 9.77936 0.463748 10.0607C0.76068 10.342 1.16341 10.5 1.58333 10.5H17.4167C17.8366 10.5 18.2393 10.342 18.5363 10.0607C18.8332 9.77936 19 9.39782 19 9ZM0 0H19V1.5H0V0Z" fill="#9E9E9E"/>
</svg>
